<?xml version="1.0" encoding="utf-8"?>
<!-- Generator: Adobe Illustrator 16.0.0, SVG Export Plug-In . SVG Version: 6.00 Build 0)  -->
<!DOCTYPE svg PUBLIC "-//W3C//DTD SVG 1.1//EN" "http://www.w3.org/Graphics/SVG/1.1/DTD/svg11.dtd">
<svg version="1.1" id="Capa_1" xmlns="http://www.w3.org/2000/svg" xmlns:xlink="http://www.w3.org/1999/xlink" x="0px" y="0px"
	 width="512px" height="512px" viewBox="0 0 512 512" enable-background="new 0 0 512 512" xml:space="preserve">
<g>
	<g>
		<path fill="#3E4095" d="M1.679,233.884l6.88-40.533h10.429l8.118,21.612l8.063-21.612h10.429l6.881,40.533H41.996l-3.493-23.331
			l-9.569,23.331H24.74l-9.085-23.331l-3.494,23.331H1.679z"/>
		<path fill="#3E4095" d="M92.418,202.274H79.894v6.774h11.827v8.921H79.894v6.993h12.525v8.921H69.357v-40.533h23.061V202.274z"/>
		<path fill="#3E4095" d="M125.585,202.274v31.609h-10.536v-31.609h-8.655v-8.924h27.846v8.924H125.585z"/>
		<path fill="#3E4095" d="M172.087,226.843h-15.053l-2.418,7.041H143.38l15.429-40.533h11.504l15.427,40.533h-11.234
			L172.087,226.843z M169.291,218.831l-4.731-13.491l-4.73,13.491H169.291z"/>
		<path fill="#3E4095" d="M211.113,193.351v31.612h12.633v8.921h-23.169v-40.533H211.113z"/>
		<path fill="#3E4095" d="M249.172,193.351v22.043c0,1.181,0.045,2.39,0.136,3.627c0.088,1.237,0.356,2.358,0.806,3.36
			c0.447,1.002,1.155,1.817,2.123,2.446c0.969,0.628,2.329,0.939,4.087,0.939c1.755,0,3.106-0.312,4.058-0.939
			c0.949-0.629,1.656-1.444,2.125-2.446c0.463-1.002,0.74-2.123,0.832-3.36c0.09-1.237,0.135-2.446,0.135-3.627v-22.043h10.482
			v23.492c0,6.309-1.445,10.912-4.326,13.816c-2.889,2.902-7.322,4.354-13.306,4.354c-5.986,0-10.43-1.452-13.333-4.354
			c-2.902-2.904-4.354-7.508-4.354-13.816v-23.492H249.172z M266.375,183.031l-10.32,7.095l-4.087-3.816l8.765-8.386
			L266.375,183.031z"/>
		<path fill="#3E4095" d="M326.422,233.884h-13.117l-10.053-15.588v15.588h-10.535v-40.533h16.395c2.26,0,4.23,0.334,5.912,0.996
			c1.684,0.663,3.074,1.568,4.166,2.716c1.094,1.146,1.918,2.471,2.475,3.978c0.555,1.506,0.834,3.117,0.834,4.835
			c0,3.086-0.746,5.583-2.232,7.503c-1.488,1.914-3.68,3.216-6.584,3.896L326.422,233.884z M303.252,211.467h1.986
			c2.078,0,3.676-0.428,4.785-1.288c1.113-0.86,1.67-2.098,1.67-3.709c0-1.613-0.557-2.851-1.67-3.709
			c-1.109-0.86-2.707-1.291-4.785-1.291h-1.986V211.467z"/>
		<path fill="#3E4095" d="M360.234,211.198h20.91c0,2.151-0.088,4.104-0.27,5.86c-0.182,1.755-0.537,3.386-1.076,4.892
			c-0.752,2.115-1.771,3.986-3.062,5.617s-2.803,2.993-4.541,4.089c-1.738,1.093-3.646,1.925-5.725,2.496
			c-2.082,0.572-4.268,0.861-6.561,0.861c-3.154,0-6.027-0.521-8.625-1.558c-2.6-1.042-4.83-2.503-6.693-4.382
			c-1.863-1.883-3.316-4.14-4.355-6.772c-1.041-2.636-1.559-5.549-1.559-8.737c0-3.153,0.512-6.047,1.531-8.68
			c1.021-2.636,2.475-4.887,4.354-6.75c1.881-1.862,4.148-3.312,6.801-4.354c2.65-1.036,5.611-1.557,8.871-1.557
			c4.229,0,7.936,0.911,11.129,2.74c3.188,1.829,5.713,4.66,7.576,8.493l-9.998,4.14c-0.932-2.22-2.143-3.816-3.629-4.784
			c-1.486-0.969-3.18-1.45-5.078-1.45c-1.578,0-3.01,0.295-4.301,0.887c-1.291,0.591-2.393,1.435-3.307,2.525
			c-0.912,1.096-1.631,2.412-2.15,3.952c-0.518,1.543-0.777,3.262-0.777,5.161c0,1.721,0.221,3.315,0.67,4.784
			c0.447,1.47,1.119,2.741,2.016,3.816c0.895,1.076,2.008,1.908,3.334,2.497c1.324,0.595,2.867,0.89,4.623,0.89
			c1.039,0,2.043-0.116,3.008-0.352c0.969-0.232,1.836-0.605,2.611-1.127c0.77-0.521,1.404-1.191,1.908-2.016
			c0.498-0.824,0.838-1.829,1.02-3.013h-8.654V211.198z"/>
		<path fill="#3E4095" d="M408.559,193.351v40.533h-10.535v-40.533H408.559z"/>
		<path fill="#3E4095" d="M456.455,206.9c-2.438-2.976-5.447-4.462-9.031-4.462c-1.576,0-3.037,0.286-4.379,0.857
			c-1.346,0.575-2.5,1.354-3.469,2.339c-0.969,0.988-1.73,2.16-2.285,3.521c-0.557,1.362-0.832,2.832-0.832,4.408
			c0,1.614,0.275,3.101,0.832,4.462c0.555,1.362,1.326,2.546,2.311,3.548c0.986,1.005,2.143,1.792,3.469,2.364
			c1.324,0.574,2.76,0.86,4.301,0.86c3.369,0,6.395-1.433,9.084-4.298v12.469l-1.076,0.379c-1.613,0.572-3.117,0.991-4.516,1.263
			c-1.398,0.267-2.777,0.402-4.139,0.402c-2.795,0-5.475-0.529-8.035-1.586c-2.561-1.059-4.82-2.545-6.773-4.462
			c-1.955-1.919-3.523-4.195-4.703-6.828c-1.184-2.633-1.775-5.51-1.775-8.627s0.584-5.977,1.746-8.575
			c1.164-2.6,2.725-4.836,4.682-6.719c1.949-1.883,4.217-3.349,6.799-4.408c2.58-1.059,5.283-1.585,8.115-1.585
			c1.613,0,3.199,0.17,4.758,0.51s3.199,0.869,4.918,1.585V206.9z"/>
		<path fill="#3E4095" d="M499.139,226.843h-15.051l-2.418,7.041h-11.24l15.43-40.533h11.506l15.43,40.533h-11.238L499.139,226.843z
			 M496.346,218.831l-4.732-13.491l-4.729,13.491H496.346z"/>
	</g>
	<g>
		<path fill="#3E4095" d="M0,356.747v-84.778h31.363l57.924,51.832v-51.832h31.204v84.778H89.287l-57.924-51.835v51.835H0z
			 M26.082,263.084c0-5.546,1.813-9.951,5.44-13.21c3.625-3.262,8.267-4.892,13.922-4.892c2.239,0,4.745,0.243,7.52,0.73
			c2.774,0.489,5.521,1.01,8.243,1.573c2.719,0.563,5.224,1.067,7.52,1.521c2.292,0.447,4.132,0.674,5.521,0.674
			c3.413,0,5.705-1.534,6.88-4.609h15.842c-1.067,6.744-3.388,11.467-6.962,14.168c-3.574,2.694-8.398,4.045-14.48,4.045
			c-2.988,0-5.921-0.243-8.8-0.73c-2.879-0.486-5.602-1.011-8.161-1.574c-2.561-0.562-4.855-1.084-6.881-1.573
			c-2.027-0.484-3.734-0.73-5.12-0.73c-1.175,0-2.188,0.297-3.041,0.899c-0.854,0.601-1.654,1.838-2.399,3.709H26.082z"/>
		<path fill="#3E4095" d="M169.133,271.969v46.1c0,2.474,0.133,5.002,0.4,7.587c0.265,2.588,1.064,4.932,2.399,7.027
			c1.333,2.101,3.441,3.805,6.322,5.118c2.879,1.313,6.931,1.968,12.16,1.968c5.225,0,9.253-0.654,12.082-1.968
			c2.826-1.313,4.932-3.018,6.321-5.118c1.384-2.096,2.211-4.439,2.48-7.027c0.265-2.585,0.399-5.113,0.399-7.587v-46.1h31.202
			v49.134c0,13.193-4.295,22.825-12.88,28.897c-8.588,6.07-21.789,9.108-39.604,9.108c-17.816,0-31.042-3.038-39.683-9.108
			c-8.641-6.072-12.961-15.704-12.961-28.897v-49.134H169.133z"/>
		<path fill="#3E4095" d="M260.182,271.969H306.9c11.098,0,19.527,1.874,25.281,5.619c5.762,3.752,8.641,9.147,8.641,16.194
			c0,4.27-1.092,7.812-3.277,10.623c-2.189,2.813-5.518,5.192-10.002,7.14c4.484,0.604,8.295,1.518,11.443,2.755
			c3.143,1.237,5.707,2.755,7.678,4.556c1.977,1.8,3.389,3.821,4.244,6.069c0.852,2.248,1.275,4.649,1.275,7.197
			c0,3.975-0.984,7.497-2.955,10.568c-1.979,3.074-4.75,5.659-8.324,7.76c-3.572,2.099-7.92,3.673-13.039,4.723
			c-5.119,1.048-10.881,1.574-17.285,1.574h-50.398V271.969z M291.541,305.248h5.76c9.812,0,14.725-2.734,14.725-8.207
			s-4.912-8.207-14.725-8.207h-5.76V305.248z M291.541,339.655h6.881c7.893,0,13.549-0.71,16.963-2.138
			c3.412-1.421,5.119-3.708,5.119-6.856s-1.707-5.437-5.119-6.86c-3.414-1.424-9.07-2.138-16.963-2.138h-6.881V339.655z"/>
		<path fill="#3E4095" d="M394.268,271.969v66.109h37.602v18.669h-68.967v-84.778H394.268z"/>
		<path fill="#3E4095" d="M508.68,290.631h-37.287v14.17h35.203v18.663h-35.203v14.614h37.287v18.669h-68.65v-84.778h68.65V290.631z
			"/>
	</g>
	<rect x="100.593" y="250.262" fill="#3E4095" width="409.688" height="5.643"/>
	<path fill="#3E4095" d="M443.625,174.675l12.562-17.812l-0.105-0.073h0.057l-112.4-79.25l-0.002,0.003l-0.002-0.004l-33.535,23.643
		l-36.072-25.434l69.609-49.081l151.807,107.036l12.559-17.812L343.738,0.001l-0.002,0.003L343.734,0l-88.521,62.413L166.694,0
		l-0.003,0.004l-0.003-0.003L2.326,115.89l12.559,17.812L166.692,26.667L236.3,75.748l-36.073,25.434l-33.533-23.643l-0.003,0.004
		l-0.003-0.003l-61.849,43.608v-0.222L53.87,156.862l12.561,17.812l25.367-17.886h0.317l74.578-52.584l88.521,63.888l88.523-63.888
		L443.625,174.675z M291.287,114.516l-36.074,25.434l-36.072-25.434l36.072-25.434L291.287,114.516z"/>
</g>
</svg>
